<?xml version="1.0" encoding="UTF-8"?>
<svg version="1.1" xmlns="http://www.w3.org/2000/svg" width="612" height="575">
<path d="M0 0 C201.96 0 403.92 0 612 0 C612 189.75 612 379.5 612 575 C410.04 575 208.08 575 0 575 C0 385.25 0 195.5 0 0 Z " fill="#FDFDFC" transform="translate(0,0)"/>
<path d="M0 0 C1.50530273 0.25571777 1.50530273 0.25571777 3.04101562 0.51660156 C18.60489868 3.23768134 34.54588636 7.41760062 48.90185547 14.05932617 C50.79253757 14.90698711 52.73874018 15.62808305 54.6875 16.33203125 C60.99236295 18.65283016 66.98800379 21.705371 73 24.6875 C73.6549646 25.01203156 74.3099292 25.33656311 74.98474121 25.67092896 C91.33525437 33.82955604 106.52488864 43.6018831 120.71435547 55.14355469 C123.0783559 57.0636422 125.47315353 58.94007229 127.875 60.8125 C142.91000476 72.87791595 157.22525527 86.73164969 169 102 C169.89743933 103.13100109 170.7959303 104.26116828 171.6953125 105.390625 C172.6102224 106.55141593 173.52429932 107.71286393 174.4375 108.875 C174.86329346 109.4107666 175.28908691 109.9465332 175.7277832 110.49853516 C178.09704496 113.55617323 179.64478906 116.39598235 181 120 C179.74068727 120.00146656 178.48137455 120.00293312 177.18390083 120.00444412 C147.17730307 120.0402759 117.17081924 120.09670247 87.16431326 120.17792095 C83.45752434 120.1879364 79.75073498 120.19778087 76.04394531 120.20751953 C75.30610231 120.2094609 74.5682593 120.21140228 73.80805741 120.21340248 C61.91751806 120.24428209 50.02699793 120.26136365 38.13642611 120.27319422 C25.90273211 120.28567906 13.66913771 120.31334354 1.4355067 120.35461307 C-6.09134897 120.37954072 -13.61803911 120.39313266 -21.14493664 120.39142957 C-26.95180231 120.39139583 -32.75845233 120.41265194 -38.56524086 120.44116783 C-40.92153944 120.44957336 -43.27787334 120.45148181 -45.63418007 120.44580269 C-92.6900183 120.34764 -133.46679794 133.54524094 -167.54492188 166.60058594 C-168.87881274 167.88344877 -170.24276616 169.13486131 -171.609375 170.3828125 C-194.43223838 191.8246746 -210.02624263 225.7632345 -211.1081543 257.13623047 C-211.17055374 260.82059894 -211.18561129 264.502621 -211.1875 268.1875 C-211.19974609 269.42564453 -211.21199219 270.66378906 -211.22460938 271.93945312 C-211.28170007 308.26816426 -194.31384682 344.30913844 -169 370 C-166.4349713 372.46898137 -163.75351647 374.74421702 -161 377 C-160.02675781 377.82242187 -159.05351562 378.64484375 -158.05078125 379.4921875 C-145.57389448 389.82763006 -131.34382334 398.64564498 -116 404 C-114.1746875 404.64195312 -114.1746875 404.64195312 -112.3125 405.296875 C-94.69634311 411.25022147 -76.89859016 413.13298544 -58.36229897 413.13809967 C-54.5519958 413.1425004 -50.74184944 413.17361345 -46.93164062 413.19921875 C-42.12437812 413.22943814 -37.31737653 413.2523246 -32.51000977 413.25048828 C-28.58716783 413.24969151 -24.66509321 413.27345625 -20.74245262 413.3123703 C-19.26806292 413.322675 -17.79358295 413.32447202 -16.31917763 413.31671906 C3.59164416 413.22245781 22.00701825 419.91737981 36.3359375 434.1015625 C40.27153249 438.38339752 43.26785103 442.88009059 46 448 C46.40863281 448.74894531 46.81726563 449.49789063 47.23828125 450.26953125 C54.71952423 465.36803981 54.24007316 486.86988998 49.25390625 502.6796875 C42.49051639 520.5889753 31.27709986 533.4066924 13.95703125 541.67578125 C12.49330078 542.33126953 12.49330078 542.33126953 11 543 C9.88625 543.51820313 8.7725 544.03640625 7.625 544.5703125 C3.84528707 546.06101825 0.17368996 546.90328263 -3.8125 547.5625 C-5.23058213 547.81055059 -6.64855147 548.05924688 -8.06640625 548.30859375 C-9.36449219 548.53675781 -10.66257812 548.76492188 -12 549 C-13.75136315 549.36858124 -15.50163353 549.74245628 -17.25 550.125 C-28.99032913 552.44811958 -41.02124325 552.20408461 -52.9375 552.1875 C-53.80538147 552.18656342 -54.67326294 552.18562683 -55.56744385 552.18466187 C-113.14975982 552.04994077 -167.93004168 534.47773235 -215.875 502.6875 C-216.86725586 502.02999756 -217.85951172 501.37249512 -218.88183594 500.69506836 C-223.96533501 497.25906382 -228.71523763 493.68140093 -233.26611328 489.56518555 C-235.59667962 487.46137524 -238.04489974 485.51844584 -240.5 483.5625 C-244.64791606 480.1937505 -248.45329105 476.66775751 -252.16796875 472.83203125 C-253.89501056 471.10498944 -255.67747444 469.55065296 -257.5625 468 C-260.76535712 465.31046761 -263.444896 462.3484672 -266.14453125 459.16015625 C-267.37966556 457.72219988 -268.64850174 456.31251018 -269.94921875 454.93359375 C-294.3775832 428.96999013 -311.94964148 396.28878868 -324 363 C-324.37995117 361.98147949 -324.37995117 361.98147949 -324.76757812 360.94238281 C-330.51661136 345.50516395 -334.20426244 329.05578022 -336.8125 312.8125 C-336.92416504 312.1205957 -337.03583008 311.42869141 -337.15087891 310.71582031 C-339.07853117 297.67419205 -339.27339219 284.47115602 -339.3125 271.3125 C-339.31511841 270.46160797 -339.31773682 269.61071594 -339.32043457 268.73403931 C-339.32542629 253.48844963 -337.93080388 238.98651682 -335 224 C-334.74150945 222.5042471 -334.48481638 221.00818171 -334.23046875 219.51171875 C-328.08889028 185.9356581 -313.00966366 152.18521171 -294 124 C-293.59507324 123.39526855 -293.19014648 122.79053711 -292.77294922 122.16748047 C-282.81403436 107.43533421 -271.30999804 93.81057404 -259 81 C-258.53352051 80.51160645 -258.06704102 80.02321289 -257.58642578 79.52001953 C-251.96896134 73.66660978 -246.14603042 68.28711529 -239.796875 63.23828125 C-236.91141678 60.92910868 -234.11700288 58.53156666 -231.3125 56.125 C-211.93867889 39.96341866 -189.2136448 26.80216098 -166 17 C-165.22269531 16.66742187 -164.44539062 16.33484375 -163.64453125 15.9921875 C-156.23930222 12.92378918 -148.63560877 10.42397348 -141 8 C-140.34644531 7.7922998 -139.69289062 7.58459961 -139.01953125 7.37060547 C-134.04148788 5.80702063 -129.03579218 4.36574556 -124 3 C-123.20303711 2.78311523 -122.40607422 2.56623047 -121.58496094 2.34277344 C-81.70117164 -8.23991235 -40.30766161 -6.97672956 0 0 Z " fill="#F3400B" transform="translate(359,14)"/>
<path d="M0 0 C1.05845731 -0.00199105 2.11691462 -0.0039821 3.2074464 -0.00603348 C4.94236324 -0.00166422 4.94236324 -0.00166422 6.71232891 0.00279331 C8.56246099 0.00151167 8.56246099 0.00151167 10.44996947 0.00020415 C13.87056779 -0.00115832 17.29110892 0.00196752 20.71170032 0.00698221 C24.40149012 0.01130009 28.09127814 0.00983933 31.78106976 0.00907993 C38.17290255 0.00855555 44.56472514 0.01169344 50.95655537 0.01731777 C60.19807201 0.02544432 69.43958372 0.02804918 78.68110355 0.02930576 C93.67480643 0.03149446 108.66850387 0.03814963 123.66220379 0.04760838 C138.22730768 0.05678719 152.79241009 0.06386573 167.35751629 0.06811619 C168.25528834 0.06837891 169.15306039 0.06864164 170.07803766 0.06891232 C174.58188992 0.07021736 179.0857422 0.07148106 183.58959448 0.07272422 C220.9543776 0.08309117 258.31915453 0.10070455 295.6839323 0.12304783 C296.32878146 3.10582859 296.96912988 6.08946308 297.60702801 9.07373142 C297.78749928 9.90629963 297.96797054 10.73886784 298.15391064 11.59666538 C301.54132811 27.50479541 302.05898546 43.28557336 301.9964323 59.49804783 C301.99427715 60.50606449 301.992122 61.51408115 301.98990154 62.55264378 C301.77558537 125.21410864 282.52366161 183.94106307 244.6839323 234.12304783 C243.6011198 235.60611423 243.6011198 235.60611423 242.4964323 237.11914158 C231.3654002 252.07646596 217.92328481 265.05270834 204.6839323 278.12304783 C204.3539323 277.46304783 204.0239323 276.80304783 203.6839323 276.12304783 C204.37754806 274.16509345 205.08009006 272.20950169 205.84262371 270.2773447 C213.76631682 249.98753972 213.05311074 225.72797275 206.6839323 205.12304783 C206.3333073 203.92164158 205.9826823 202.72023533 205.6214323 201.48242283 C199.81677795 183.50411838 188.55253374 166.99792426 175.6917448 153.30664158 C173.6839323 151.12304783 173.6839323 151.12304783 171.73471355 148.61132908 C151.01103925 123.46660426 114.07767156 110.81408445 82.83163548 107.31897259 C77.00270209 106.78722668 71.14496386 106.82523598 65.29637432 106.81808758 C62.82933912 106.81434275 60.36267798 106.7974048 57.8957243 106.77732944 C50.89372047 106.72266479 43.89166643 106.69131517 36.88949871 106.666749 C32.57320232 106.65071132 28.25718023 106.62034108 23.94102764 106.58198452 C22.31787851 106.57049167 20.6946801 106.56440558 19.07149029 106.5643034 C0.28071284 106.56269034 -16.82810598 104.22132482 -30.99966145 90.59570408 C-41.95475956 78.90164487 -47.6925792 65.84405883 -47.5270052 49.84961033 C-46.68954559 35.0544906 -40.09838531 22.15755954 -29.3160677 12.12304783 C-20.62234002 5.00129921 -11.40657641 -0.00474681 0 0 Z " fill="#080809" transform="translate(287.3160676956177,228.87695217132568)"/>
<path d="M0 0 C-12.42633643 6.74976001 -29.2369666 5.16410709 -42.96362305 5.13037109 C-45.56109431 5.12500291 -48.15839328 5.13035061 -50.75585938 5.13671875 C-70.62632491 5.14764246 -70.62632491 5.14764246 -76 4 C-76.66 3.34 -77.32 2.68 -78 2 C-77.36567551 2.00444122 -76.73135101 2.00888245 -76.07780457 2.01345825 C-69.3760304 2.05827867 -62.6742999 2.08810532 -55.97241211 2.10986328 C-53.48313666 2.11981846 -50.99387258 2.13338744 -48.50463867 2.15087891 C-35.11458912 2.24249929 -21.94743209 2.14949305 -8.65356445 0.43310547 C-5.71192619 0.08439406 -2.95370162 -0.09172762 0 0 Z " fill="#D73922" transform="translate(351,561)"/>
<path d="M0 0 C2.89724047 2.89724047 3.43820524 6.46108082 4.5 10.3125 C4.92476718 11.83007728 5.35179726 13.34702326 5.78125 14.86328125 C6.0606543 15.87322144 6.0606543 15.87322144 6.34570312 16.90356445 C7.10293935 19.32982845 8.03607812 21.64850158 9 24 C9.92382812 26.3515625 9.92382812 26.3515625 10.84765625 28.703125 C17.12329853 44.50457685 24.28672089 59.2691753 33.6640625 73.4609375 C34.10492188 74.29882812 34.54578125 75.13671875 35 76 C34.505 77.485 34.505 77.485 34 79 C22.45208312 60.67600758 13.01378792 41.90439339 5.375 21.625 C4.94880371 20.502146 4.52260742 19.37929199 4.08349609 18.22241211 C1.83699967 12.06930747 0.39956795 6.54464748 0 0 Z " fill="#DB3A1D" transform="translate(30,357)"/>
<path d="M0 0 C0.33 0 0.66 0 1 0 C1.46339688 17.5232673 0.60939313 33.19737827 -11.375 47.25 C-12.674375 48.61125 -12.674375 48.61125 -14 50 C-14 46.23762388 -12.85930661 45.0172649 -10.75 41.9375 C-7.39712758 36.80320244 -4.93936097 31.80833738 -3 26 C-2.66162109 25.00226562 -2.66162109 25.00226562 -2.31640625 23.984375 C-0.66143851 18.36889825 -0.80769738 12.81181248 -1 7 C-1.99 7.495 -1.99 7.495 -3 8 C-2.37240135 5.07120629 -1.41377341 2.63904371 0 0 Z " fill="#D0371E" transform="translate(409,489)"/>
<path d="M0 0 C0.33 0 0.66 0 1 0 C1.22314035 2.70783832 1.42889462 5.41518024 1.625 8.125 C1.68945312 8.88554687 1.75390625 9.64609375 1.8203125 10.4296875 C1.871875 11.17734375 1.9234375 11.925 1.9765625 12.6953125 C2.02893066 13.37609863 2.08129883 14.05688477 2.13525391 14.75830078 C2 17 2 17 1.02734375 19.79492188 C-0.16259525 23.50726009 -0.32059562 26.69148435 -0.4140625 30.5859375 C-0.43342865 31.28772125 -0.4527948 31.989505 -0.4727478 32.71255493 C-0.53207569 34.93324999 -0.57873917 37.15399823 -0.625 39.375 C-0.66322302 40.88934434 -0.70227722 42.40366794 -0.7421875 43.91796875 C-0.83773734 47.61178831 -0.92193937 51.3057647 -1 55 C-1.33 55 -1.66 55 -2 55 C-2.05020245 49.73878298 -2.08609045 44.47771154 -2.10986328 39.21630859 C-2.11979494 37.43405726 -2.1333448 35.65182166 -2.15087891 33.86962891 C-2.26079878 22.39270134 -1.76931387 11.35392846 0 0 Z " fill="#E05F45" transform="translate(22,249)"/>
<path d="M0 0 C0.66 0.33 1.32 0.66 2 1 C-11.16810345 16.40948276 -11.16810345 16.40948276 -17 18 C-11.72898586 11.58930713 -5.90871848 5.81409488 0 0 Z " fill="#E94823" transform="translate(111,84)"/>
<path d="M0 0 C0.66 0.33 1.32 0.66 2 1 C-3.82269844 6.78844727 -10.25076647 11.1528742 -18 14 C-18.99 13.67 -19.98 13.34 -21 13 C-20.02417969 12.52949219 -19.04835938 12.05898438 -18.04296875 11.57421875 C-16.75765492 10.94563461 -15.47250733 10.31671048 -14.1875 9.6875 C-13.54490234 9.37876953 -12.90230469 9.07003906 -12.24023438 8.75195312 C-8.99673722 7.15541307 -6.45422163 5.64990707 -4 3 C-3.34 3 -2.68 3 -2 3 C-2 2.34 -2 1.68 -2 1 C-1.34 0.67 -0.68 0.34 0 0 Z " fill="#D03417" transform="translate(388,543)"/>
<path d="M0 0 C0.33 0 0.66 0 1 0 C1 5.94 1 11.88 1 18 C0.67 18 0.34 18 0 18 C-0.33 14.37 -0.66 10.74 -1 7 C-1.99 7.495 -1.99 7.495 -3 8 C-2.37240135 5.07120629 -1.41377341 2.63904371 0 0 Z " fill="#D52204" transform="translate(409,489)"/>
<path d="M0 0 C4.28359673 1.8855148 6.15103592 4.35965701 9 8 C8.01 8 7.02 8 6 8 C4.39453125 6.25 4.39453125 6.25 2.8125 4 C2.28269531 3.2575 1.75289063 2.515 1.20703125 1.75 C0.80871094 1.1725 0.41039063 0.595 0 0 Z " fill="#DC4529" transform="translate(95,474)"/>
<path d="M0 0 C0.66 0 1.32 0 2 0 C3.32421875 1.42578125 3.32421875 1.42578125 4.6875 3.3125 C5.14511719 3.92738281 5.60273437 4.54226563 6.07421875 5.17578125 C6.53248047 6.07876953 6.53248047 6.07876953 7 7 C6.67 7.99 6.34 8.98 6 10 C4.99723227 8.52270825 3.99785546 7.04311423 3 5.5625 C2.443125 4.73878906 1.88625 3.91507812 1.3125 3.06640625 C0 1 0 1 0 0 Z " fill="#DA4021" transform="translate(72,446)"/>
<path d="M0 0 C4.455 2.97 4.455 2.97 9 6 C8.01 6.495 8.01 6.495 7 7 C4.5249829 5.88568235 2.32116581 4.41849022 0 3 C0 2.01 0 1.02 0 0 Z " fill="#F36632" transform="translate(206,398)"/>
</svg>
